<?xml version="1.0" encoding="UTF-8" standalone="no"?>
<svg
   xmlns:dc="http://purl.org/dc/elements/1.1/"
   xmlns:cc="http://creativecommons.org/ns#"
   xmlns:rdf="http://www.w3.org/1999/02/22-rdf-syntax-ns#"
   xmlns:svg="http://www.w3.org/2000/svg"
   xmlns="http://www.w3.org/2000/svg"
   xmlns:sodipodi="http://sodipodi.sourceforge.net/DTD/sodipodi-0.dtd"
   xmlns:inkscape="http://www.inkscape.org/namespaces/inkscape"
   width="512"
   height="512"
   viewBox="0 0 512 512"
   version="1.1"
   id="svg23"
   sodipodi:docname="Icon.svg"
   style="fill:none"
   inkscape:version="0.92.3 (2405546, 2018-03-11)">
  <metadata
     id="metadata29">
    <rdf:RDF>
      <cc:Work
         rdf:about="">
        <dc:format>image/svg+xml</dc:format>
        <dc:type
           rdf:resource="http://purl.org/dc/dcmitype/StillImage" />
        <dc:title></dc:title>
      </cc:Work>
    </rdf:RDF>
  </metadata>
  <defs
     id="defs27" />
  <sodipodi:namedview
     pagecolor="#ffffff"
     bordercolor="#666666"
     borderopacity="1"
     objecttolerance="10"
     gridtolerance="10"
     guidetolerance="10"
     inkscape:pageopacity="0"
     inkscape:pageshadow="2"
     inkscape:window-width="1199"
     inkscape:window-height="802"
     id="namedview25"
     showgrid="false"
     inkscape:zoom="0.22453656"
     inkscape:cx="614.10695"
     inkscape:cy="-252.29487"
     inkscape:window-x="541"
     inkscape:window-y="132"
     inkscape:window-maximized="0"
     inkscape:current-layer="svg23" />
  <mask
     id="path-1-inside-1_4_1286"
     fill="white">
    <path
       d="m 401.398,416.72 c 5.679,16.258 8.602,33.683 8.602,51.28 0,34 -50.592,37 -113,37 -62.408,0 -113,0 -113,-37 0,-17.597 2.923,-35.022 8.602,-51.28 5.678,-16.257 14.002,-31.029 24.495,-43.472 10.493,-12.443 22.95,-22.314 36.66,-29.048 13.71,-6.734 28.404,-10.2 43.243,-10.2 14.839,0 29.533,3.466 43.243,10.2 13.71,6.734 26.167,16.605 36.66,29.048 10.493,12.443 18.817,27.215 24.495,43.472 z"
       id="path2"
       inkscape:connector-curvature="0"
       style="clip-rule:evenodd;fill-rule:evenodd" />
  </mask>
  <path
     d="m 410,468 h 20 v 0 z m -8.602,-51.28 18.882,-6.595 v 0 z m -208.796,0 -18.882,-6.595 z m 24.495,-43.472 -15.289,-12.894 v 0 z m 36.66,-29.048 8.817,17.951 z m 86.486,0 -8.817,17.951 z m 36.66,29.048 -15.289,12.893 v 0 z M 430,468 c 0,-19.793 -3.285,-39.451 -9.72,-57.875 l -37.763,13.191 C 387.439,437.407 390,452.599 390,468 Z m -40,0 c 0,2.75 -0.69,3.868 -2.138,5.15 -2.238,1.983 -6.922,4.524 -15.709,6.672 C 354.432,484.155 328.61,485 297,485 v 40 c 30.798,0 61.476,-0.655 84.653,-6.322 11.663,-2.852 23.527,-7.436 32.725,-15.578 C 424.366,494.257 430,482.25 430,468 Z m -93,17 c -32.119,0 -57.731,-0.116 -75.491,-4.132 -8.708,-1.97 -13.121,-4.406 -15.169,-6.27 C 205.091,473.461 204,472.042 204,468 h -40 c 0,14.458 5.233,26.914 15.42,36.183 9.388,8.543 21.524,13.044 33.265,15.699 C 235.823,525.116 266.711,525 297,525 Z M 173.72,410.125 C 167.285,428.549 164,448.207 164,468 h 40 c 0,-15.401 2.561,-30.593 7.483,-44.684 z m 28.088,-49.771 c -12.154,14.413 -21.652,31.348 -28.088,49.771 l 37.763,13.191 c 4.922,-14.092 12.071,-26.701 20.903,-37.175 z m 43.131,-34.105 c -16.354,8.033 -30.973,19.688 -43.131,34.105 l 30.578,25.787 c 8.828,-10.469 19.123,-18.554 30.188,-23.99 z M 297,314 c -17.988,0 -35.69,4.208 -52.061,12.249 l 17.635,35.902 C 273.623,356.724 285.309,354 297,354 Z m 52.061,12.249 C 332.69,318.208 314.988,314 297,314 v 40 c 11.691,0 23.377,2.724 34.426,8.151 z m 43.131,34.105 c -12.158,-14.417 -26.777,-26.072 -43.131,-34.105 l -17.635,35.902 c 11.065,5.436 21.36,13.521 30.188,23.99 z m 28.088,49.771 c -6.436,-18.423 -15.934,-35.358 -28.088,-49.771 l -30.578,25.787 c 8.832,10.474 15.981,23.083 20.903,37.175 z"
     mask="url(#path-1-inside-1_4_1286)"
     id="path5"
     inkscape:connector-curvature="0"
     transform="matrix(1.9613169,0,0,1.9810408,-329.7524,-510.68538)"
     style="fill:#000000" />
  <path
     d="m 457.5163,314.85401 c 11.13835,32.20758 16.87126,66.72722 16.87126,101.5876 0,67.35544 -99.22697,73.29848 -221.62886,73.29848 -122.40192,0 -221.628876,0 -221.628876,-73.29848 0,-34.86038 5.732929,-69.38002 16.871234,-101.5876 11.136381,-32.20592 27.462361,-61.4699 48.042464,-86.11989 20.580108,-24.65027 45.012238,-44.20502 71.901928,-57.54525 26.88966,-13.34051 55.70926,-20.2068 84.81325,-20.2068 29.10398,0 57.92359,6.86629 84.81323,20.2068 26.88968,13.34023 51.3218,32.89498 71.90194,57.54525 20.58006,24.64999 36.90611,53.91397 48.04243,86.11989 z"
     id="path7"
     inkscape:connector-curvature="0"
     style="clip-rule:evenodd;fill:#8de16f;fill-opacity:0.65;fill-rule:evenodd;stroke-width:1.97115433" />
  <ellipse
     cx="449.87112"
     cy="314.41843"
     id="circle9"
     rx="34.323048"
     ry="34.668213"
     style="fill:#000000;stroke-width:1.97115433" />
  <ellipse
     cx="292.96576"
     cy="314.41843"
     id="circle11"
     rx="34.323048"
     ry="34.668213"
     style="fill:#000000;stroke-width:1.97115433" />
  <ellipse
     cx="284.1398"
     cy="303.52234"
     id="circle13"
     rx="11.767902"
     ry="11.886245"
     style="fill:#ffffff;stroke-width:1.97115433" />
  <ellipse
     cx="443.00656"
     cy="303.52234"
     id="circle15"
     rx="11.767902"
     ry="11.886245"
     style="fill:#ffffff;stroke-width:1.97115433" />
  <ellipse
     cx="294.73376"
     cy="69.580513"
     rx="18.068022"
     ry="41.400398"
     transform="matrix(0.71230173,0.70187338,-0.69471325,0.7192868,0,0)"
     id="ellipse17"
     style="fill:#ffffff;fill-opacity:0.47000002;stroke-width:1.97120416" />
  <ellipse
     cx="318.7822"
     cy="114.65826"
     rx="6.204659"
     ry="14.217154"
     transform="matrix(0.71230173,0.70187338,-0.69471325,0.7192868,0,0)"
     id="ellipse19"
     style="fill:#ffffff;fill-opacity:0.47000002;stroke-width:1.97120416" />
  <ellipse
     cx="-276.24185"
     cy="135.81776"
     rx="6.2295365"
     ry="14.159948"
     transform="matrix(-0.330146,-0.94392988,0.94183614,-0.33607244,0,0)"
     id="ellipse21"
     style="fill:#ffffff;fill-opacity:0.47000002;stroke-width:1.97117341" />
</svg>
